<svg xmlns="http://www.w3.org/2000/svg" xmlns:xlink="http://www.w3.org/1999/xlink" xmlns:inkscape="http://www.inkscape.org/namespaces/inkscape" version="1.1" width="1080" height="1080" viewBox="0 0 1080 1080">
<defs>
<clipPath id="clip_0">
<path transform="matrix(1,0,0,-1,0,1080)" d="M0 1080H1080V0H0Z"/>
</clipPath>
</defs>
<g inkscape:groupmode="layer" inkscape:label="Layer 1">
<g clip-path="url(#clip_0)">
<path transform="matrix(1,0,0,-1,277.7995,547.5771)" d="M0 0C-3.891 9.935 3.279 17.153 8.616 21.889 11.655 23.938 15.323 25.996 20.478 27.995 30.415 31.849 42.9 31.658 43.944 31.635 54.327 30.973 64.22 27.725 68.947 22.207 70.851 30.364 73.305 41.622 74.799 50.256 76.278 57.815 78.229 68.823 78.229 68.823 31.995 80.171-2.896 63.975-23.769 48.918-35.673 40.331-45.575 29.247-52.834 16.49-53.396 15.504-53.874 14.619-54.214 13.903-57.217 7.578-58.926 .706-59.092-6.293-59.101-6.653-59.105-6.988-59.105-7.296-59.106-8.033-58.879-10.208-58.569-12.244-58.573-12.246-58.576-12.249-58.58-12.251-58.561-12.346-58.543-12.445-58.524-12.541-58.373-13.495-58.206-14.401-58.038-15.091-57.462-18.178-56.823-21.406-55.517-24.121-42.269-51.653 9.69-62.809 45.945-50.922 50.488-36.066 54.79-20.97 58.963-5.742 44.745-16.484 7.135-18.22 0 0" fill="#030505"/>
<path transform="matrix(1,0,0,-1,433.2593,526.902)" d="M0 0C-4.894-6.241-16.527-7.448-26.801-7.274-24.801 1.446-22.503 9.87-19.909 17.996-11.337 17.254 2.278 20.228 3.829 13.401 4.698 9.577 2.034 2.594 0 0M24.029 48.643C19.513 49.661 14.388 50.446 8.571 50.939H-5.238-5.251C-10.193 50.94-16.997 51.227-22.556 50.939H-68.004L-72.895 33.429C-82.899-2.64-93.451-38.174-103.101-74.597H-103.074L-103.101-74.691H-82.362L-82.209-74.597H-47.585C-44.94-66.285-42.838-57.431-40.521-48.79L-40.485-48.767-36.902-36.426C-36.9-36.419-36.897-36.411-36.895-36.404H-31.667C-8.517-36.796 12.284-36.595 27.458-28.652 36.028-24.167 43.154-17.062 48.117-8.391 50.419-4.369 52.254-.009 53.551 4.585 54.382 7.53 54.99 10.572 55.359 13.682 55.478 14.524 55.558 15.406 55.615 16.304 55.621 16.378 55.629 16.452 55.634 16.527 55.656 16.835 55.667 17.136 55.681 17.439 56.573 36.75 42.075 45.156 24.029 48.643" fill="#030505"/>
<path transform="matrix(1,0,0,-1,175.9745,524.8333)" d="M0 0C-.232-.444-.467-.851-.7-1.204-.712-1.223-.725-1.242-.737-1.261-.861-1.445-.983-1.618-1.104-1.771V-1.772C-5.995-8.009-18.118-9.452-28.388-9.28-27.023-4.712-25.882 .081-24.634 4.767-23.546 8.397-22.413 11.974-21.29 15.493-21.235 15.636-21.187 15.786-21.131 15.928-13.008 15.065-.78 18.014 1.841 12.482 3.295 9.415 1.549 3.119 0 0M52.9 11.614C53.069 12.809 53.185 14.066 53.222 15.367 54.116 34.68 39.617 43.087 21.57 46.574 17.054 47.592 11.929 48.377 6.112 48.871H-7.71C-12.652 48.871-19.456 49.158-25.014 48.871H-70.463L-75.409 31.165C-85.396-4.836-95.927-40.309-105.559-76.665H-105.533L-105.559-76.76H-84.821L-84.668-76.665H-50.044C-47.398-68.354-45.296-59.499-42.98-50.859L-42.944-50.836-39.361-38.497C-39.359-38.489-39.356-38.48-39.354-38.472H-34.125C-10.976-38.865 9.825-38.664 24.999-30.721 32.19-26.957 38.362-21.348 43.096-14.519 43.071-14.616 43.05-14.712 43.025-14.808 45.389-10.235 48.876-2.704 51.092 2.516 51.923 5.462 52.531 8.504 52.9 11.614" fill="#030505"/>
<path transform="matrix(1,0,0,-1,487.597,601.3781)" d="M0 0 14.888 53.058H-.595L4.01 69.107H52.82L48.214 53.058H33.439L18.551 0Z" fill="#676767"/>
<path transform="matrix(1,0,0,-1,609.3893,572.96096)" d="M0 0H14.586L13.397 16.144C13.278 17.749 13.217 19.18 13.214 20.44 13.21 21.697 13.26 22.878 13.364 23.979 12.472 22.091 11.663 20.431 10.937 19 10.211 17.567 9.648 16.505 9.25 15.813ZM-37.13-28.417 5.918 40.69H29.048L35.281-28.417H16.541L15.348-15.389H-8.82L-17.021-28.417Z" fill="#676767"/>
<path transform="matrix(1,0,0,-1,640.906,601.3781)" d="M0 0 19.352 69.107H40.452L50.867 34.978C50.958 34.695 51.103 34.207 51.302 33.515 52.448 29.77 53.165 26.497 53.453 23.697L53.666 25.443C53.82 26.701 54.061 28.094 54.389 29.621 54.718 31.147 55.156 32.996 55.705 35.167L65.188 69.107H83.644L64.293 0H43.995L32.811 35.167C31.989 37.716 31.389 39.824 31.011 41.493 30.632 43.161 30.34 44.828 30.136 46.496L29.899 44.561C29.745 43.302 29.527 41.972 29.246 40.572 28.964 39.171 28.54 37.307 27.972 34.978L18.457 0Z" fill="#676767"/>
<path transform="matrix(1,0,0,-1,721.4308,577.5871)" d="M0 0C2.514-3.115 4.999-5.381 7.454-6.798 9.908-8.214 12.535-8.922 15.337-8.922 17.665-8.922 19.591-8.355 21.114-7.223 22.637-6.089 23.513-4.595 23.74-2.738 24.047-.22 21.579 2.502 16.335 5.428 15.835 5.712 15.437 5.932 15.142 6.089 10.043 8.922 6.647 11.643 4.953 14.256 3.257 16.868 2.639 20.046 3.097 23.791 3.932 30.619 6.919 36.206 12.061 40.548 17.201 44.892 23.407 47.063 30.677 47.063 34.516 47.063 38.123 46.386 41.498 45.033 44.873 43.68 47.972 41.682 50.796 39.038L41.198 25.396C38.974 27.536 36.902 29.125 34.984 30.163 33.065 31.202 31.24 31.721 29.51 31.721 27.621 31.721 25.981 31.179 24.59 30.093 23.198 29.007 22.406 27.677 22.214 26.104 21.976 24.152 24.069 21.965 28.493 19.542 30.057 18.693 31.262 18 32.11 17.466 36.629 14.79 39.663 12.061 41.211 9.275 42.758 6.49 43.276 3.005 42.765-1.18 41.861-8.576 38.573-14.484 32.904-18.905 27.233-23.327 19.992-25.538 11.181-25.538 6.555-25.538 2.348-24.554-1.439-22.587-5.228-20.621-8.505-17.702-11.273-13.831Z" fill="#676767"/>
<path transform="matrix(1,0,0,-1,789.5943,562.6234)" d="M0 0H1.746C7.725 0 11.846 .629 14.109 1.888 16.371 3.147 17.687 5.287 18.056 8.308 18.368 10.857 17.691 12.722 16.026 13.902 14.36 15.082 11.593 15.672 7.722 15.672H4.418ZM-29.284-38.755-9.838 30.352H9.139C14.394 30.352 18.318 30.14 20.909 29.715 23.501 29.29 25.71 28.574 27.539 27.568 30.843 25.774 33.179 23.319 34.545 20.203 35.911 17.088 36.328 13.359 35.798 9.016 35.27 4.705 33.845 .708 31.523-2.974 29.2-6.656 26.313-9.488 22.861-11.471 20.831-12.635 18.495-13.461 15.855-13.949 13.215-14.437 9.141-14.681 3.634-14.681H.802-4.107L-10.921-38.755Z" fill="#676767"/>
<path transform="matrix(1,0,0,-1,862.8619,547.6121)" d="M0 0C-5.634 0-10.602-2.03-14.906-6.089-19.21-10.149-21.729-15.185-22.464-21.195-23.114-26.514-22.116-30.762-19.467-33.94-16.819-37.119-12.961-38.708-7.894-38.708-2.356-38.708 2.606-36.608 6.99-32.406 11.375-28.205 13.936-23.083 14.674-17.041 15.282-12.069 14.208-7.986 11.451-4.791 8.695-1.597 4.878 0 0 0M-11.046-55.607C-15.987-55.607-20.397-54.93-24.275-53.578-28.153-52.225-31.501-50.195-34.316-47.488-37.267-44.593-39.411-41.021-40.748-36.772-42.086-32.524-42.462-28.008-41.877-23.225-41.246-18.064-39.862-13.241-37.725-8.757-35.588-4.272-32.722-.205-29.129 3.446-24.916 7.789-20.017 11.117-14.432 13.429-8.846 15.742-2.954 16.899 3.246 16.899 13.631 16.899 21.659 13.909 27.333 7.93 33.006 1.951 35.258-5.823 34.089-15.389 33.462-20.518 32.062-25.342 29.889-29.857 27.716-34.373 24.851-38.441 21.293-42.059 16.943-46.496 12.031-49.864 6.558-52.161 1.085-54.458-4.784-55.607-11.046-55.607" fill="#676767"/>
<path transform="matrix(1,0,0,-1,919.5641,563.8505)" d="M0 0H5.806C9.456 0 12.359 .833 14.514 2.502 16.669 4.169 17.939 6.576 18.324 9.724 18.685 12.682 18.035 14.829 16.374 16.167 14.711 17.505 11.867 18.174 7.839 18.174H5.101ZM-10.488-37.528H-28.851L-9.499 31.58H8.911C14.449 31.58 18.548 31.383 21.206 30.99 23.865 30.596 26.128 29.927 27.995 28.983 31.288 27.347 33.65 25.042 35.08 22.068 36.51 19.094 36.971 15.53 36.464 11.376 35.763 5.648 33.47 .857 29.585-2.997 25.698-6.853 20.706-9.269 14.608-10.244L28.078-37.528H7.025L-3.109-11.14Z" fill="#676767"/>
<path transform="matrix(1,0,0,-1,956.7651,601.3781)" d="M0 0 14.888 53.058H-.595L4.01 69.107H52.82L48.214 53.058H33.439L18.551 0Z" fill="#676767"/>
<path transform="matrix(1,0,0,-1,552.099,563.8505)" d="M0 0H5.806C9.456 0 12.359 .833 14.514 2.502 16.669 4.169 17.939 6.576 18.324 9.724 18.685 12.682 18.035 14.829 16.374 16.167 14.711 17.505 11.867 18.174 7.839 18.174H5.101ZM-10.488-37.528H-28.851L-9.499 31.58H8.911C14.449 31.58 18.548 31.383 21.206 30.99 23.865 30.596 26.128 29.927 27.995 28.983 31.288 27.347 33.65 25.042 35.08 22.068 36.51 19.094 36.971 15.53 36.464 11.376 35.763 5.648 33.47 .857 29.585-2.997 25.698-6.853 20.706-9.269 14.608-10.244L41.195-69.452H20.142L-3.109-11.14Z" fill="#676767"/>
<path transform="matrix(1,0,0,-1,925.8777,513.6922)" d="M0 0C-.118 1.534-.367 3.103-.855 4.677-1.336 6.251-2.055 7.842-3.113 9.323-3.646 10.057-4.255 10.768-4.952 11.402-5.302 11.718-5.667 12.02-6.048 12.304-6.239 12.444-6.436 12.578-6.633 12.71L-7.136 13.021C-7.793 13.426-8.452 13.829-9.142 14.172-9.484 14.347-9.822 14.537-10.169 14.7L-11.219 15.172C-14.03 16.405-16.971 17.214-19.9 17.679-20.353 17.752-20.924 17.812-21.57 17.86-28.884 18.404-35.694 21.875-40.319 27.568-40.601 27.915-40.789 28.165-40.85 28.283-41.982 30.434-43.381 32.455-45.033 34.256-46.685 36.057-48.588 37.633-50.664 38.926-52.363 39.991-54.17 40.847-56.037 41.541-56.582 42.421-57.157 43.28-57.754 44.128-58.943 45.819-60.232 47.441-61.609 48.986-64.364 52.07-67.458 54.882-70.913 57.198-74.363 59.513-78.133 61.379-82.108 62.636-84.086 63.26-86.144 63.756-88.161 64.104-90.182 64.492-92.214 64.818-94.249 65.121-102.393 66.31-110.616 66.89-118.838 66.99-127.067 67.093-144.011 65.614-144.011 65.614L-149.887 47.716-435.466 39.763-295.347 35.833-385.196 32.757-156.045 28.954C-157.542 24.396-159.056 19.843-160.509 15.27L-165.845-1.375-164.977-1.663C-161.805 3.422-158.998 8.628-156.326 13.88-153.643 19.127-151.161 24.442-148.762 29.784-147.575 32.459-146.387 35.134-145.27 37.833L-143.573 41.873-141.94 45.935C-140.832 48.637-137.959 56.193-137.569 57.249-137.569 57.249-122.849 57.987-118.915 57.982-111.044 58.11-103.188 57.842-95.366 57.294-93.417 57.119-91.455 57.001-89.508 56.786L-88.054 56.636-86.762 56.475C-86.326 56.438-85.9 56.355-85.467 56.292-85.035 56.226-84.599 56.166-84.172 56.068-80.727 55.391-77.303 54.24-73.952 52.646-73.119 52.24-72.284 51.819-71.467 51.354-70.642 50.902-69.813 50.434-69.007 49.922-67.396 48.899-65.783 47.809-64.234 46.6-62.614 45.374-59.66 42.875-58.124 41.464-58.124 41.464-90.653 41.034-93.032 40.975-97.791 40.901-101.883 41.104-106.635 40.872-111.386 40.629-116.064 40.614-121.732 40.356-126.484 40.14-135.94 39.502-135.94 39.502-131.621 39.448-110.076 37.904-105.354 37.501-95.915 36.727-62.341 36.257-61.859 36.209-57.942 36.008-56.677 35.008-54.791 34.017-52.582 32.857-50.993 30.809-49.324 29.568H-79.604C-85.535 29.568-91.018 26.411-93.995 21.281L-100.758 11.955H-26.78C-22.338 11.116-18.089 10.026-14.259 8.295-13.702 8.04-13.143 7.792-12.607 7.503-12.059 7.236-11.531 6.934-11.003 6.633L-10.617 6.414-10.342 6.245C-10.21 6.163-10.081 6.077-9.959 5.98-9.57 5.675-9.185 5.333-8.834 4.923-7.575 3.505-6.622 1.362-5.932-1.003-5.246-3.381-4.822-5.983-4.475-8.656-4.129-11.339-3.903-14.091-3.638-16.956-2.924-15.695-2.371-14.365-1.887-13.011-1.402-11.656-1.012-10.268-.693-8.852-.07-6.018 .228-3.069 0 0" fill="#030505"/>
<path transform="matrix(1,0,0,-1,889.657,523.927)" d="M0 0C-3.115 1.857-6.551 3.214-10.094 4.073-13.637 4.906-17.312 5.273-20.893 5.152-28.061 5.006-35.137 3.301-41.559 .41-44.767-1.05-47.822-2.802-50.662-4.825-52.08-5.84-53.447-6.92-54.739-8.081-56.033-9.236-57.266-10.466-58.353-11.812-52.289-8.579-46.127-6.037-39.839-4.207-33.563-2.376-27.169-1.309-20.774-1.234-14.415-1.108-8.187-2.151-2.326-4.588 .602-5.805 3.423-7.371 6.133-9.227 7.491-10.152 8.814-11.158 10.12-12.217 11.419-13.283 12.711-14.395 14.004-15.55 11.155-9.26 6.264-3.688 0 0" fill="#030505"/>
</g>
</g>
</svg>
