<?xml version="1.0" encoding="UTF-8"?>
<svg version="1.1" xmlns="http://www.w3.org/2000/svg" width="3758" height="748">
<path d="M0 0 C38.93042588 -0.09190064 77.86083519 -0.16221275 116.79134792 -0.20426132 C121.40541376 -0.20926312 126.01947939 -0.21444051 130.63354492 -0.21972656 C132.01119642 -0.22130043 132.01119642 -0.22130043 133.41667927 -0.22290608 C148.21569777 -0.24022989 163.01465302 -0.27172241 177.81363421 -0.30861118 C193.04070671 -0.34624561 208.26774648 -0.36828292 223.49486357 -0.37635398 C232.86276815 -0.38179557 242.23049386 -0.39887074 251.59834326 -0.43166587 C258.05461121 -0.45309293 264.51078905 -0.45913773 270.96708982 -0.45400551 C274.67146239 -0.45148659 278.37552645 -0.45485934 282.07984161 -0.4768219 C308.9452661 -0.62807641 335.28951181 1.94698879 361.625 7.375 C363.13881947 7.67919331 364.65265448 7.98330933 366.16650391 8.28735352 C391.75752363 13.48426275 417.08552844 20.12119127 440 33 C440.66725098 33.37350586 441.33450195 33.74701172 442.02197266 34.13183594 C452.19781185 39.92523858 460.81118688 46.64144022 469 55 C470.15628906 56.175625 470.15628906 56.175625 471.3359375 57.375 C494.00280457 81.69194552 497.19225107 112.13804113 496.10223389 143.86523438 C494.17046098 184.20295916 477.4999938 225.5833998 454 258 C453.56977539 258.59844727 453.13955078 259.19689453 452.69628906 259.81347656 C446.82072793 267.9181733 440.29751495 275.33185835 433.38134766 282.55566406 C432.15491961 283.83801618 430.94170513 285.13297661 429.73046875 286.4296875 C388.55696925 329.36012668 328.24605039 343.43127027 271.1875 348.6875 C269.89062256 348.80697998 268.59374512 348.92645996 267.25756836 349.04956055 C247.63341283 350.74517206 228.01287203 351.17117462 208.32421875 351.31640625 C205.93284297 351.33704158 203.5414703 351.35803942 201.15010071 351.37937927 C194.93120885 351.43392216 188.7122879 351.48362304 182.49334717 351.53222656 C176.11728403 351.58294467 169.74126181 351.63836496 163.36523438 351.69335938 C150.91019142 351.80010856 138.45511254 351.90172942 126 352 C117.16883419 382.0925412 108.68231556 412.22277994 100.89648438 442.60229492 C95.68288324 462.85955183 89.89606911 482.93270911 84 503 C62.60421334 503.17282966 41.20837941 503.33908468 19.8125 503.5 C19.02256889 503.50594854 18.23263778 503.51189708 17.41876936 503.51802588 C-23.7833406 503.82792366 -64.98392607 504.10210454 -106.1875 504.0625 C-107.53364191 504.06121597 -107.53364191 504.06121597 -108.90697861 504.05990601 C-119.27134496 504.04922462 -129.63567168 504.0304344 -140 504 C-138.64132485 496.71925301 -136.92151463 489.58289271 -135.0078125 482.4296875 C-134.71064331 481.31038849 -134.41347412 480.19108948 -134.1072998 479.03787231 C-133.11722477 475.31582842 -132.12164101 471.59529083 -131.125 467.875 C-130.77116496 466.55160974 -130.41738559 465.22820459 -130.06365967 463.90478516 C-108.15134375 381.96525287 -84.67447776 300.44155315 -61.44622803 218.8684082 C-60.73498077 216.37060677 -60.0237381 213.87280404 -59.3125 211.375 C-58.96041725 210.13851715 -58.6083345 208.9020343 -58.24558258 207.62808228 C-49.00758614 175.18325594 -39.79429435 142.73192195 -30.6875 110.25 C-30.27479363 108.77870598 -29.86208419 107.30741281 -29.44937134 105.83612061 C-23.0357865 82.96494648 -16.68505517 60.07625582 -10.3288424 37.18908978 C-9.16096598 32.98393911 -7.99297206 28.77882108 -6.82498932 24.57369995 C-4.54988071 16.38249778 -2.27489806 8.19126064 0 0 Z M194 133 C191.33744075 139.98574564 189.08115374 147.02480172 186.9375 154.1875 C186.6507843 155.14400955 186.6507843 155.14400955 186.35827637 156.11984253 C179.98489991 177.43552998 174.0872381 198.93249101 168.875 220.5625 C168.67487305 221.3882251 168.47474609 222.2139502 168.26855469 223.06469727 C167.4654728 226.50014449 167 229.44979882 167 233 C201.78373219 233.73098694 242.98137862 233.26811915 270 208 C281.18736032 195.47015645 289.49356925 174.02813909 289 157 C288.31770043 150.49747838 286.55660835 144.9512282 281.34765625 140.62890625 C269.69685172 132.59961969 255.22464649 132.84908402 241.65625 132.90234375 C240.27762911 132.90421212 238.89900754 132.90563404 237.52038574 132.90663147 C233.916851 132.91042365 230.31335748 132.92022522 226.70983887 132.93133545 C223.02271075 132.94162104 219.33557588 132.94614431 215.6484375 132.95117188 C208.43227301 132.96185091 201.21614231 132.97888701 194 133 Z " fill="#050708" transform="translate(1179,117)"/>
<path d="M0 0 C1.05800922 -0.00445784 2.11601844 -0.00891569 3.20608854 -0.01350862 C4.38296877 -0.01332426 5.559849 -0.01313989 6.77239227 -0.01294994 C8.01178071 -0.01662663 9.25116914 -0.02030332 10.5281148 -0.02409142 C13.9852448 -0.03324177 17.44232723 -0.03783326 20.89946485 -0.04048073 C24.62336548 -0.04437596 28.34725227 -0.05395629 32.0711441 -0.0626936 C41.08543598 -0.08250275 50.09972905 -0.09253973 59.11403728 -0.10142139 C63.36852895 -0.10580583 67.62301938 -0.11117305 71.87751007 -0.11641026 C86.04549908 -0.13344349 100.21348731 -0.14792674 114.38148499 -0.155159 C118.06269075 -0.15706871 121.7438965 -0.15898904 125.42510223 -0.16094494 C126.79741956 -0.16167055 126.79741956 -0.16167055 128.19746047 -0.16241082 C142.94145573 -0.17066979 157.68536874 -0.19592654 172.42932826 -0.22852562 C187.60219737 -0.26179553 202.77502509 -0.27962646 217.94793081 -0.28280324 C226.45177126 -0.28495241 234.95549261 -0.29346129 243.45929718 -0.31926441 C250.72083664 -0.34124705 257.98222822 -0.34889037 265.24379718 -0.33929763 C268.93399356 -0.33482799 272.6238868 -0.3361938 276.31403923 -0.35605907 C303.14445189 -0.49239811 329.46735888 2.08831718 355.76836395 7.50922108 C357.28218342 7.81341439 358.79601843 8.1175304 360.30986786 8.42157459 C385.90088758 13.61848383 411.22889239 20.25541235 434.14336395 33.13422108 C434.81061493 33.50772694 435.47786591 33.8812328 436.16533661 34.26605701 C446.35554761 40.06764195 454.91939943 46.7962723 463.14336395 55.13422108 C463.97609833 55.95664295 464.8088327 56.77906483 465.66680145 57.62640858 C487.24062872 80.08380556 490.89365179 109.78450252 490.38489532 139.4714098 C490.20861509 146.42781691 489.52643649 153.25646067 488.45586395 160.13422108 C488.30738007 161.09046375 488.15889618 162.04670643 488.00591278 163.03192616 C485.27427281 178.63767176 480.35942987 192.93030698 473.58086395 207.19672108 C472.87037249 208.71699731 472.16091504 210.23775718 471.45244598 211.75897694 C469.69506174 215.52269322 467.92065105 219.27806343 466.13976288 223.03070545 C465.19740954 225.02012446 464.26057331 227.0120113 463.32646942 229.00531483 C461.73169483 232.40626973 460.12810444 235.80282772 458.51836395 239.19672108 C457.82891693 240.65573841 457.82891693 240.65573841 457.12554169 242.14423084 C452.8964436 250.94382044 448.31804454 259.29318243 441.83086395 266.63422108 C441.35721405 267.18118641 440.88356415 267.72815174 440.39556122 268.29169178 C438.98631465 269.91323552 437.56621164 271.5246119 436.14336395 273.13422108 C434.97547333 274.47033436 434.97547333 274.47033436 433.78398895 275.83343983 C424.39412465 286.43865891 414.49909582 295.70493164 403.14336395 304.13422108 C402.60308563 304.53528065 402.06280731 304.93634022 401.50615692 305.34955311 C337.27338226 352.49051462 251.71889215 351.26531145 175.67540741 351.73511219 C169.39189068 351.77583993 163.1084548 351.82660975 156.82500458 351.87640858 C144.5978487 351.97189677 132.37064599 352.05668685 120.14336395 352.13422108 C110.72511651 384.14732817 101.81033944 416.24661112 93.42650223 448.54543877 C92.65428763 451.51814977 91.87892562 454.49003641 91.103405 457.46188641 C90.58644561 459.44906304 90.07473232 461.43760233 89.56337738 463.42622852 C86.08862378 476.75792654 82.09995264 489.93896431 78.14336395 503.13422108 C56.74757729 503.30705074 35.35174336 503.47330576 13.95586395 503.63422108 C13.16593284 503.64016962 12.37600173 503.64611815 11.56213331 503.65224695 C-29.63997665 503.96214474 -70.84056211 504.23632562 -112.04413605 504.19672108 C-113.39027796 504.19543705 -113.39027796 504.19543705 -114.76361465 504.19412708 C-125.127981 504.18344569 -135.49230772 504.16465548 -145.85663605 504.13422108 C-144.41305065 496.28333418 -142.4816927 488.60470828 -140.41913605 480.89593983 C-140.06822449 479.57702327 -139.71746018 478.25806753 -139.36682892 476.93907642 C-138.20230324 472.56513612 -137.02966839 468.19338617 -135.85663605 463.82172108 C-135.43918398 462.26372063 -135.02174437 460.70571684 -134.60431671 459.14770985 C-114.66501065 384.77904727 -93.40010986 310.76935925 -72.29888725 236.72439957 C-67.14354372 218.63409142 -61.99439917 200.54203048 -56.85663605 182.44672108 C-56.65045403 181.72061005 -56.444272 180.99449902 -56.23184204 180.24638462 C-49.16243001 155.34759198 -42.15549513 130.43143297 -35.16913605 105.50922108 C-34.92866295 104.65146832 -34.68818985 103.79371555 -34.44042969 102.90997028 C-29.76641287 86.23792295 -25.09509788 69.56512189 -20.43222332 52.88995457 C-18.71738856 46.75804248 -17.00029241 40.62676646 -15.28149128 34.495965 C-14.09659253 30.26899126 -12.91458056 26.04122518 -11.73484707 21.81280708 C-10.85360763 18.65748521 -9.96808855 15.50336453 -9.08319855 12.34906483 C-8.60998924 10.647812 -8.60998924 10.647812 -8.12722015 8.91219044 C-7.84021744 7.89225498 -7.55321472 6.87231953 -7.25751495 5.82147694 C-7.00934021 4.93407322 -6.76116547 4.0466695 -6.50547028 3.13237476 C-5.29222378 -0.60394626 -3.68289745 0.0071568 0 0 Z M193.14336395 133.13422108 C190.69852161 139.07033762 188.43161876 144.9893831 186.5847702 151.13812733 C186.35907852 151.87961018 186.13338684 152.62109303 185.90085602 153.38504505 C185.1630021 155.82045417 184.4336131 158.25827462 183.70586395 160.69672108 C183.45268402 161.54018085 183.19950409 162.38364063 182.93865204 163.2526598 C177.0387664 182.95604713 171.77290824 202.82847291 166.56523895 222.72406483 C166.31896255 223.6638216 166.07268616 224.60357838 165.81894684 225.57181263 C165.59697128 226.42506123 165.37499573 227.27830982 165.14629364 228.15741444 C164.95154449 228.90502537 164.75679535 229.6526363 164.55614471 230.42290211 C164.1042837 232.00284153 164.1042837 232.00284153 164.14336395 233.13422108 C199.64403697 233.73679158 242.58423993 232.50182335 269.9597702 206.57172108 C273.60879632 202.4983896 275.93386274 198.10890645 278.14336395 193.13422108 C278.82012177 191.61828358 278.82012177 191.61828358 279.51055145 190.07172108 C284.61362537 177.75187399 289.36685763 161.87140576 284.89336395 148.69672108 C281.53696968 141.86406131 278.05598613 138.94613518 271.14336395 136.13422108 C261.40880425 132.83142403 251.74288996 132.99652892 241.58086395 133.03656483 C240.1798228 133.03843312 238.77878099 133.03985508 237.37773895 133.04085255 C233.71502077 133.04464532 230.05234313 133.05444742 226.38964081 133.06555653 C222.64218951 133.07584081 218.89473158 133.08036511 215.1472702 133.08539295 C207.81261644 133.09607304 200.4779959 133.11310988 193.14336395 133.13422108 Z " fill="#050708" transform="translate(145.85663604736328,116.86577892303467)"/>
<path d="M0 0 C-3.65747211 22.69175807 -7.73497149 45.29518692 -11.98416519 67.88290405 C-12.33061418 69.72457186 -12.67669602 71.56630877 -13.02242661 73.40811157 C-20.22604932 111.78059313 -28.09161664 149.98327146 -37 188 C-40.42578376 186.38328774 -42.65994694 184.53445471 -45.375 181.875 C-72.63537874 157.00588255 -117.45672608 149.76298008 -153 151 C-203.57267945 153.40945655 -259.46313695 166.49264844 -294.9765625 205.19921875 C-307.63829264 219.42564 -317.56799455 236.3590629 -317.2734375 255.9765625 C-315.43113452 276.34716979 -305.52440357 292.18669978 -290.25 305.25 C-255.00231911 331.89261325 -203.37025626 333.49720792 -161.4921875 327.96875 C-133.45690435 323.92672526 -104.53090649 316.56736529 -81.00390625 300.15234375 C-80.34261719 299.77207031 -79.68132812 299.39179688 -79 299 C-78.34 299.33 -77.68 299.66 -77 300 C-88.95940954 343.52269477 -101.15067671 386.96837173 -113.96451569 430.24806976 C-116.25862104 437.99828045 -118.51221622 445.755919 -120.64216614 453.55328369 C-121.59412748 457.03323898 -122.57271322 460.50532933 -123.55636597 463.97644043 C-123.96832814 465.46046838 -124.36624762 466.94848681 -124.74807739 468.44055176 C-127.38966992 478.7593721 -127.38966992 478.7593721 -131.0715332 481.59594727 C-133.70187799 482.73169984 -136.20177793 483.3894701 -139 484 C-140.46723511 484.42176514 -140.46723511 484.42176514 -141.96411133 484.85205078 C-145.23165083 485.78899618 -148.5119581 486.62467128 -151.8125 487.4375 C-153.03026123 487.7375293 -154.24802246 488.03755859 -155.50268555 488.34667969 C-168.901457 491.56478897 -182.36382802 494.03484125 -196 496 C-197.10827148 496.16516113 -198.21654297 496.33032227 -199.35839844 496.50048828 C-237.56840631 501.93257849 -278.82199192 501.50273543 -317 496 C-317.69065552 495.90289734 -318.38131104 495.80579468 -319.09289551 495.70574951 C-380.22949255 487.09512954 -442.46626198 468.57275632 -491 429 C-491.56283691 428.54544434 -492.12567383 428.09088867 -492.70556641 427.62255859 C-530.97852218 396.51978021 -545.49097761 358.18326644 -551 310 C-551.42851941 305.23391193 -551.39681014 300.76662059 -551 296 C-550.92894043 295.10587402 -550.85788086 294.21174805 -550.78466797 293.29052734 C-545.77034641 233.66101467 -515.16192654 182.77083527 -475.1953125 139.40625 C-473.37541359 137.41148536 -471.61176815 135.38667194 -469.8515625 133.33984375 C-465.5197099 128.37941611 -460.90736025 123.71589579 -456.25 119.0625 C-455.36401123 118.1765918 -454.47802246 117.29068359 -453.56518555 116.37792969 C-448.34047739 111.19872875 -443.09468567 106.29774598 -437.28125 101.78515625 C-435.0176531 100.01381415 -432.9234441 98.13697263 -430.8125 96.1875 C-424.25247103 90.3112903 -417.11938911 85.17026805 -410 80 C-409.22156738 79.43442383 -408.44313477 78.86884766 -407.64111328 78.28613281 C-396.21934421 70.03515568 -384.52684821 62.4688212 -372.35351562 55.37744141 C-370.12641602 54.07398747 -367.91282775 52.75065092 -365.703125 51.41796875 C-302.67871485 13.53071902 -231.12557494 -8.11525511 -158 -14 C-157.14696289 -14.07057617 -156.29392578 -14.14115234 -155.41503906 -14.21386719 C-103.14722094 -18.32824354 -50.92212759 -11.43117166 0 0 Z " fill="#050708" transform="translate(1144,128)"/>
<path d="M0 0 C0.89250458 -0.00426498 1.78500916 -0.00852997 2.70455933 -0.01292419 C3.69191574 -0.01247101 4.67927216 -0.01201782 5.69654846 -0.0115509 C7.24810638 -0.01658882 7.24810638 -0.01658882 8.83100891 -0.02172852 C12.27781861 -0.0312848 15.72457982 -0.03318505 19.17140198 -0.03425598 C21.57065857 -0.03746925 23.96991496 -0.04083337 26.36917114 -0.04434204 C31.41921949 -0.05034769 36.4692507 -0.05218086 41.51930237 -0.05158997 C47.94649783 -0.05148915 54.37358079 -0.06505033 60.80074978 -0.08236217 C65.76921069 -0.09357171 70.73764537 -0.09550632 75.70611763 -0.09498024 C78.07204126 -0.09615042 80.4379658 -0.10051727 82.80387688 -0.10831261 C111.28992224 -0.19325744 140.82990489 0.87718576 163.39405823 20.58683777 C170.44793623 27.86393976 175.88953142 36.40449034 178.86280823 46.13371277 C179.07421448 46.80015808 179.28562073 47.46660339 179.50343323 48.15324402 C185.32380188 69.89647835 181.03792494 96.40543025 170.86280823 116.13371277 C155.78762473 142.19841471 133.62706827 158.26557738 104.86280823 166.13371277 C101.8721481 166.84774581 98.8734671 167.50969171 95.86280823 168.13371277 C95.86280823 172.45586791 97.00077178 175.12173581 98.80030823 178.91496277 C99.11228653 179.58904678 99.42426483 180.2631308 99.74569702 180.9576416 C100.42331879 182.42006504 101.10430587 183.88093279 101.78825378 185.34040833 C103.62386895 189.25796173 105.43528433 193.18669673 107.24952698 197.11418152 C107.62695541 197.92956894 108.00438385 198.74495636 108.39324951 199.58505249 C112.9445174 209.43696049 117.32819463 219.36289619 121.71022034 229.29093933 C122.37277991 230.79190823 123.03582393 232.29266341 123.69940186 233.79318237 C124.29836842 235.14788856 124.89606445 236.5031576 125.49215698 237.85913086 C127.17844131 241.67373091 128.96966962 245.41757817 130.86280823 249.13371277 C131.47201111 248.14081238 131.47201111 248.14081238 132.09352112 247.12785339 C142.55124913 230.09062419 153.10106018 213.1137531 163.71730042 196.17472839 C170.87462823 184.75161814 177.99744366 173.30917632 185.05030823 161.82121277 C190.57694686 152.8204225 196.16516539 143.86305054 201.81983948 134.94230652 C211.36723937 119.87457926 220.75324482 104.70727743 230.08570862 89.50578308 C234.50617072 82.31408328 238.98053662 75.15958557 243.50294495 68.03166199 C247.09844341 62.35973584 250.64644593 56.65981206 254.17530823 50.94621277 C269.69660477 25.81560083 269.69660477 25.81560083 273.82862854 19.51356506 C275.33493299 17.01079376 276.50892889 14.74432285 277.66424561 12.09545898 C282.65427481 1.46683423 282.65427481 1.46683423 288.01334953 -0.75982094 C294.40694287 -2.13921487 300.91096398 -1.70161738 307.40187073 -1.42878723 C309.49499324 -1.39890786 311.58822842 -1.37615003 313.6815033 -1.36018372 C319.16562729 -1.29936882 324.64286337 -1.14250124 330.12428284 -0.96492004 C335.72758276 -0.80060755 341.33200737 -0.72803771 346.93702698 -0.64753723 C357.91529822 -0.47644052 368.8884785 -0.20374995 379.86280823 0.13371277 C381.51297304 3.4340424 381.42008732 7.13970399 381.73561096 10.77528381 C381.85834082 12.13343663 381.85834082 12.13343663 381.98355007 13.51902688 C382.25836192 16.57108278 382.52734513 19.62362501 382.79640198 22.67619324 C382.99161097 24.85719453 383.1871864 27.03816306 383.38310242 29.21910095 C383.80504191 33.9246637 384.22443132 38.63044447 384.64189148 43.33640671 C385.30167125 50.77314286 385.96740999 58.20933801 386.63404846 65.64546204 C387.56781742 76.06792948 388.49919879 86.4906079 389.42823792 96.91349792 C389.51671464 97.90610228 389.51671464 97.90610228 389.60697877 98.91875924 C389.84596551 101.59998406 390.08493972 104.28121 390.32389909 106.96243726 C390.98136566 114.33938543 391.63922964 121.71629811 392.29737854 129.09318542 C392.35629032 129.75351138 392.41520211 130.41383734 392.4758991 131.09417318 C393.45795222 142.10077592 394.44253681 153.10715097 395.42873096 164.11338341 C396.09126534 171.5098215 396.75056918 178.90653846 397.40739441 186.30348563 C397.81628699 190.90141638 398.22777685 195.49911199 398.63996506 200.09674835 C398.83095136 202.23322072 399.02083592 204.36979189 399.20955276 206.50646591 C399.46679052 209.41730462 399.7279091 212.3277698 399.99000549 215.23817444 C400.1013415 216.51433681 400.1013415 216.51433681 400.21492672 217.81628025 C400.53652303 221.34741035 400.93938837 224.7113282 401.86280823 228.13371277 C405.48903248 215.23822348 409.11385087 202.34233929 412.73780823 189.44621277 C413.15269249 187.96985163 413.15269249 187.96985163 413.57595825 186.46366501 C420.34993516 162.35767627 427.11529879 138.24931056 433.85499573 114.13371277 C434.13983196 113.11456472 434.4246682 112.09541668 434.71813583 111.04538536 C437.47061679 101.19642978 440.22195343 91.34715549 442.97115135 81.49728298 C450.54595193 54.36015902 458.19034445 27.24343323 465.86280823 0.13371277 C494.24280823 0.13371277 522.62280823 0.13371277 551.86280823 0.13371277 C553.67737986 4.97257045 555.39217225 9.64043327 556.8896637 14.55632019 C557.44947685 16.3873806 557.44947685 16.3873806 558.02059937 18.25543213 C558.42377155 19.58333643 558.82690232 20.9112533 559.22999573 22.23918152 C559.66150976 23.65379533 560.09325318 25.06833918 560.52520752 26.4828186 C561.69010022 30.29983612 562.8517881 34.11782131 564.01257706 37.93608856 C565.23228981 41.94745284 566.45376738 45.95827973 567.67506409 49.96916199 C569.19493543 54.96072101 570.7145863 59.9523464 572.23309326 64.94432068 C575.49734018 75.67187176 578.78351829 86.39248314 582.08420563 97.10887337 C583.51544524 101.75895433 584.94221488 106.41040865 586.36871338 111.06194592 C587.4968633 114.73942748 588.6277192 118.4160261 589.76533508 122.09059143 C594.7840095 138.30770961 599.44390454 154.48942482 602.86280823 171.13371277 C603.0381308 170.36395111 603.21345337 169.59418945 603.39408875 168.80110168 C609.29529703 143.04232633 616.12323846 117.57285727 623.31228638 92.14963531 C624.46478538 88.07051361 625.6123388 83.99000096 626.76026917 79.90959167 C628.14552968 74.98651447 629.53118446 70.06355054 630.91920471 65.14125061 C633.73358722 55.15934541 636.52992981 45.17262385 639.30812073 35.18058777 C639.96549094 32.81909156 640.62287954 30.45760048 641.2802887 28.09611511 C642.18982393 24.82843715 643.09845541 21.56052386 644.00398254 18.29173279 C644.81335909 15.37104414 645.62666998 12.45147959 646.44093323 9.53215027 C646.79249985 8.25667328 646.79249985 8.25667328 647.15116882 6.95542908 C648.74891585 1.24760514 648.74891585 1.24760514 649.86280823 0.13371277 C652.20534604 0.03878555 654.51826927 0.00811486 656.86109924 0.02018738 C657.95859497 0.01996834 657.95859497 0.01996834 659.07826233 0.01974487 C661.50777606 0.0204441 663.93721406 0.02823692 666.36671448 0.03605652 C668.04680337 0.03792066 669.7268928 0.03934458 671.40698242 0.04034424 C675.83754466 0.0441697 680.26807432 0.05400021 684.69862366 0.06504822 C689.21623799 0.07526174 693.73385756 0.07984173 698.2514801 0.08488464 C707.12193715 0.09562246 715.99236999 0.11269921 724.86280823 0.13371277 C719.19060598 21.69576822 713.2538407 43.17663527 707.20851517 64.63669968 C705.18370899 71.82758078 703.16419673 79.0199525 701.14351082 86.21199226 C700.34640712 89.04881436 699.54906587 91.88556962 698.75170898 94.72232056 C693.5308491 113.29979435 688.3381517 131.88511071 683.14737225 150.47100735 C678.31634529 167.76836819 673.47892115 185.06394127 668.63928223 202.35889435 C668.12193108 204.2077077 667.60460723 206.0565287 667.08731079 207.90535736 C663.93787553 219.16124819 660.78454426 230.41603261 657.62388611 241.66877747 C656.7467526 244.79203599 655.87117803 247.91572486 654.99699402 251.03981018 C653.99280184 254.62827211 652.98551908 258.21585079 651.97564316 261.80271721 C651.43547225 263.72428512 650.89856229 265.64676878 650.36174011 267.5692749 C649.88551712 269.25681129 649.88551712 269.25681129 649.39967346 270.97843933 C648.98768959 272.4463089 648.98768959 272.4463089 648.56738281 273.9438324 C647.86280823 276.13371277 647.86280823 276.13371277 646.86280823 277.13371277 C644.30690934 277.22877329 641.77812851 277.25928038 639.22193909 277.24723816 C638.02203087 277.2474572 638.02203087 277.2474572 636.79788208 277.24768066 C634.14111158 277.24698132 631.4844103 277.23918795 628.82765198 277.23136902 C626.99062132 277.22950491 625.15359017 277.22808098 623.31655884 277.2270813 C618.4717116 277.22325552 613.62689415 277.21342473 608.78205872 277.20237732 C603.84218244 277.19216449 598.90230138 277.18758395 593.9624176 277.18254089 C584.2625347 277.17180251 574.56267393 277.15472537 564.86280823 277.13371277 C557.83024816 256.1877137 550.90304417 235.21988809 544.30030823 214.13371277 C542.76500172 209.24272564 541.22804643 204.35225736 539.69093323 199.46183777 C539.30084579 198.21968506 538.91075836 196.97753235 538.5088501 195.69773865 C535.80357828 187.09346318 533.06722642 178.49953091 530.31399345 169.91049194 C529.01791635 165.86483718 527.72586586 161.81789388 526.43355656 157.77103424 C525.40352235 154.54700636 524.36991404 151.32422661 523.33128357 148.10295105 C518.94038213 134.48033477 514.85528524 120.92449885 511.74879456 106.94718933 C511.07028029 103.35432358 511.07028029 103.35432358 509.86280823 101.13371277 C509.779422 101.66472595 509.69603577 102.19573914 509.61012268 102.74284363 C507.0342068 118.54386861 503.19756251 133.91378926 499.04640198 149.36027527 C498.47223891 151.50934294 497.89833125 153.65847887 497.32466125 155.80767822 C491.42011526 177.89654216 485.42344359 199.96067383 479.40138245 222.01774597 C477.87574301 227.60585731 476.35369903 233.19494169 474.83246994 238.78425503 C473.64328065 243.151889 472.45214058 247.51898906 471.26039886 251.8859272 C470.69677079 253.95229094 470.13378949 256.01883122 469.5714798 258.08555412 C468.79918932 260.923045 468.02423844 263.7597956 467.24855042 266.59635925 C467.02009933 267.43791061 466.79164825 268.27946198 466.55627441 269.14651489 C464.97706252 274.90520418 464.97706252 274.90520418 463.86280823 277.13371277 C419.31280823 277.13371277 374.76280823 277.13371277 328.86280823 277.13371277 C324.86280823 236.13371277 324.86280823 236.13371277 324.86280823 225.13371277 C292.85280823 225.13371277 260.84280823 225.13371277 227.86280823 225.13371277 C227.20280823 226.78371277 226.54280823 228.43371277 225.86280823 230.13371277 C224.88251256 231.84609799 223.86099221 233.53528192 222.80812073 235.20402527 C222.19871643 236.17436707 221.58931213 237.14470886 220.96144104 238.14445496 C220.31014221 239.17216003 219.65884338 240.19986511 218.98780823 241.25871277 C218.32104065 242.31735535 217.65427307 243.37599792 216.96730042 244.46672058 C215.59925103 246.63774131 214.22945463 248.80766215 212.85792542 250.97648621 C211.00210951 253.91327173 209.1535694 256.85446761 207.30812073 259.79777527 C206.2432078 261.4932079 205.17811439 263.18852719 204.11280823 264.88371277 C203.62441467 265.66246765 203.13602112 266.44122253 202.63282776 267.24357605 C202.17762756 267.96528992 201.72242737 268.68700378 201.25343323 269.43058777 C200.86188049 270.05288269 200.47032776 270.67517761 200.06690979 271.31632996 C199.47087952 272.21593445 199.47087952 272.21593445 198.86280823 273.13371277 C198.45034348 273.82183044 198.03787872 274.50994812 197.61291504 275.21891785 C195.86280823 277.13371277 195.86280823 277.13371277 193.48995972 277.61473083 C192.55508224 277.60584839 191.62020477 277.59696594 190.65699768 277.58781433 C189.59612442 277.58751221 188.53525116 277.58721008 187.44223022 277.5868988 C186.29840378 277.56625366 185.15457733 277.54560852 183.97608948 277.52433777 C182.80394394 277.51867798 181.6317984 277.51301819 180.4241333 277.50718689 C176.67411245 277.48476599 172.92504112 277.4345566 169.17530823 277.38371277 C166.63560847 277.36365527 164.09589376 277.3454032 161.5561676 277.32902527 C155.32472291 277.28488237 149.09383339 277.21791259 142.86280823 277.13371277 C143.21787445 277.8915506 143.57294067 278.64938843 143.93876648 279.43019104 C150.59649734 293.64580122 157.13663909 307.90339818 163.48780823 322.25871277 C170.66125663 338.47232919 177.9455076 354.63402028 185.26716614 370.78120422 C186.37788315 373.23164554 187.48732926 375.68265944 188.59669495 378.13371277 C190.20133853 381.67830385 191.81405229 385.21912624 193.42970276 388.75871277 C194.26297421 390.59200025 195.09614766 392.42533228 195.92921448 394.25871277 C196.32350143 395.11867859 196.71778839 395.97864441 197.12402344 396.8646698 C197.48327408 397.6572821 197.84252472 398.44989441 198.21266174 399.26652527 C198.53203201 399.96664734 198.85140228 400.66676941 199.18045044 401.3881073 C199.86280823 403.13371277 199.86280823 403.13371277 199.86280823 405.13371277 C171.48280823 405.13371277 143.10280823 405.13371277 113.86280823 405.13371277 C108.64468323 392.01621277 103.42655823 378.89871277 98.05030823 365.38371277 C95.07439687 357.90468505 92.09846153 350.42566696 89.12233734 342.94672394 C82.6212781 326.60963508 76.12193246 310.27186824 69.62697124 293.93235397 C65.76468744 284.21606589 61.90100602 274.50033427 58.03641987 264.7849617 C55.70245982 258.91729638 53.36920969 253.04935106 51.03770447 247.18070984 C41.47003591 223.09909516 31.90103751 199.02398448 21.86280823 175.13371277 C21.54374008 176.27883835 21.22467194 177.42396393 20.89593506 178.60379028 C17.88242985 189.4180175 14.86652908 200.23157414 11.84830761 211.04448605 C10.29684948 216.60294806 8.74622364 222.16163941 7.19752502 227.72087097 C5.70172434 233.09009919 4.20370459 238.4587038 2.70417213 243.82689095 C2.13368168 245.87067875 1.56397867 247.91468653 0.99509239 249.95892143 C0.19554014 252.83149985 -0.606859 255.70326922 -1.40989685 258.57487488 C-1.75839691 259.83076668 -1.75839691 259.83076668 -2.11393738 261.11203003 C-2.33682938 261.90691833 -2.55972137 262.70180664 -2.78936768 263.52078247 C-2.97833524 264.19830031 -3.1673028 264.87581816 -3.36199665 265.57386684 C-4.53684307 269.45343954 -5.85534356 273.28816813 -7.13719177 277.13371277 C-31.88719177 277.13371277 -56.63719177 277.13371277 -82.13719177 277.13371277 C-72.96564892 242.74042706 -72.96564892 242.74042706 -69.89500427 231.94230652 C-69.5297528 230.65076467 -69.16473748 229.35915603 -68.79992676 228.06748962 C-68.02605814 225.32869373 -67.25101036 222.59023596 -66.47492981 219.85206604 C-64.29248581 212.15078729 -62.11967061 204.44678586 -59.94578552 196.74308777 C-59.59909915 195.51488091 -59.59909915 195.51488091 -59.24540901 194.2618618 C-53.78667297 174.92114648 -48.37652853 155.56689482 -42.97010803 136.21150208 C-41.32747991 130.33081648 -39.68396566 124.45037878 -38.04026794 118.56999207 C-33.60914792 102.71690843 -29.1780935 86.86380793 -24.75242615 71.00920105 C-22.30049164 62.22543912 -19.846198 53.44234018 -17.38911152 44.66001797 C-16.10921751 40.08496104 -14.83052081 35.50957729 -13.55476379 30.93336487 C-12.37499113 26.70147931 -11.19219187 22.47045217 -10.00695038 18.24009514 C-9.57387742 16.69223176 -9.14195782 15.14404518 -8.71125031 13.59552193 C-8.12703645 11.49572946 -7.53878505 9.39711102 -6.94944763 7.29875183 C-6.62149704 6.1247583 -6.29354645 4.95076477 -5.95565796 3.74119568 C-4.70929305 -0.22949396 -3.94652005 0.00848458 0 0 Z M54.86280823 54.13371277 C52.25360448 63.3732619 49.6457927 72.61320241 47.03977966 81.853652 C45.82978712 86.14389686 44.61930726 90.434003 43.4077301 94.72380066 C42.23950083 98.86018511 41.07253022 102.99692272 39.90644836 107.13391304 C39.46033464 108.71576261 39.01375998 110.29748225 38.56672668 111.87907219 C37.94286209 114.08658035 37.32060704 116.29453606 36.69874573 118.50260925 C36.16579895 120.3912394 36.16579895 120.3912394 35.62208557 122.31802368 C34.81941499 124.80858707 34.81941499 124.80858707 34.86280823 126.13371277 C64.17745786 127.66609635 64.17745786 127.66609635 90.86280823 117.13371277 C91.48413635 116.70445496 92.10546448 116.27519714 92.74562073 115.83293152 C101.52862091 109.08408938 105.65420625 98.81840699 107.33155823 88.15324402 C108.25190761 79.9014751 108.02169413 72.95782848 103.36280823 65.88371277 C96.10856162 57.15432032 84.65937533 55.21288225 73.86280823 54.13371277 C70.51529895 54.00550826 67.17693011 54.01955814 63.82765198 54.05949402 C62.52628296 54.06753052 62.52628296 54.06753052 61.19862366 54.07572937 C59.08664198 54.08955219 56.97471132 54.11084307 54.86280823 54.13371277 Z M314.86280823 72.13371277 C314.37421326 73.14232361 314.37421326 73.14232361 313.87574768 74.17131042 C306.72936975 88.85797094 299.17281679 103.09778648 290.70362854 117.07267761 C287.45720995 122.47103255 284.28403469 127.91239248 281.10414124 133.35011292 C279.67962093 135.78562205 278.25283585 138.2198005 276.82606506 140.6539917 C275.82472609 142.3631815 274.82471291 144.0731478 273.82472229 145.78312683 C272.48651094 148.06854403 271.14517435 150.35183333 269.79933167 152.63273621 C269.15770081 153.72360535 268.51606995 154.81447449 267.85499573 155.93840027 C267.27862366 156.91534851 266.70225159 157.89229675 266.1084137 158.89884949 C264.78166797 160.8528705 264.78166797 160.8528705 264.86280823 162.13371277 C283.34280823 162.13371277 301.82280823 162.13371277 320.86280823 162.13371277 C320.91071395 153.6859983 320.91071395 153.6859983 320.51148987 145.32463074 C320.43463455 144.32503326 320.35777924 143.32543579 320.27859497 142.29554749 C320.19423691 141.2495639 320.10987885 140.20358032 320.02296448 139.12590027 C319.93655197 138.0021701 319.85013947 136.87843994 319.7611084 135.72065735 C319.39618412 130.9755131 319.02182374 126.23112965 318.64723206 121.48674011 C317.35578823 105.04120751 316.38852617 88.62232446 315.86280823 72.13371277 C315.53280823 72.13371277 315.20280823 72.13371277 314.86280823 72.13371277 Z " fill="#676767" transform="translate(1893.137191772461,342.8662872314453)"/>
<path d="M0 0 C1.53914063 0.81404297 1.53914063 0.81404297 3.109375 1.64453125 C16.75279362 9.2221597 28.8187703 19.18486786 40 30 C40.4945166 30.46873535 40.9890332 30.9374707 41.49853516 31.42041016 C53.22397298 42.5435783 63.46442269 55.25877431 72 69 C72 69.66 72 70.32 72 71 C73.175625 71.33 74.35125 71.66 75.5625 72 C101.46712468 80.74331916 119.57001923 100.24973707 133.625 122.8125 C146.22597509 142.61403229 169.14337436 156.89422517 191.83203125 162.1875 C199.53397344 163.84666538 207.23305856 165.08238064 215.0625 165.9375 C239.68577257 168.81393466 267.68305476 178.96002792 283.9921875 198.37109375 C298.4178419 217.7188062 299.35375159 242.67108989 296.34375 265.8125 C294.11924069 279.78966341 289.54362832 293.44975845 283 306 C282.34 306 281.68 306 281 306 C280.90501221 304.9797876 280.81002441 303.9595752 280.7121582 302.90844727 C278.48025206 256.13083271 278.48025206 256.13083271 258 216 C253.57668846 212.7570173 248.94402842 210.31821309 244 208 C243.29439941 207.66371582 242.58879883 207.32743164 241.86181641 206.98095703 C229.33495486 201.10787 216.43359173 197.21091884 203 194 C201.96165351 193.74538834 200.92330702 193.49077669 199.85349548 193.22844952 C191.81410391 191.36398779 184.31683872 190.56532746 176.07913208 190.60127258 C174.24809191 190.59130234 174.24809191 190.59130234 172.38006103 190.58113068 C169.03666586 190.56585151 165.69375124 190.5636362 162.35035634 190.56726015 C158.72817449 190.56788936 155.10606453 190.55121425 151.48391724 190.53674316 C145.22320125 190.51405106 138.96254055 190.50208837 132.70178604 190.49761391 C123.65003278 190.49112894 114.59837908 190.46815057 105.54666613 190.44127061 C90.85745944 190.39809189 76.16825697 190.36807436 61.47900391 190.34643555 C47.21791515 190.32539905 32.95686082 190.29810074 18.69580078 190.26245117 C17.37509194 190.25915293 17.37509194 190.25915293 16.02770211 190.25578807 C11.61020564 190.24471775 7.19270949 190.23352506 2.77521348 190.22227156 C-33.81649462 190.1292128 -70.40821969 190.05755642 -107 190 C-102.65504315 182.33334301 -102.65504315 182.33334301 -99.96875 178.7578125 C-99.41131104 178.00991455 -98.85387207 177.2620166 -98.27954102 176.49145508 C-97.69229248 175.7105249 -97.10504395 174.92959473 -96.5 174.125 C-91.74979025 167.75583994 -87.10059649 161.33433273 -82.5625 154.8125 C-78.66422948 149.24155158 -74.70890327 143.92294433 -70 139 C-69.51015625 138.42507812 -69.0203125 137.85015625 -68.515625 137.2578125 C-59.03175241 126.69409304 -44.66047705 121.39533615 -31 119 C-29.19423852 118.90364353 -27.38560341 118.8543019 -25.57731628 118.84178162 C-23.96410995 118.82709839 -23.96410995 118.82709839 -22.3183136 118.81211853 C-21.14874619 118.80636307 -19.97917877 118.8006076 -18.77416992 118.79467773 C-17.53473633 118.78477814 -16.29530273 118.77487854 -15.01831055 118.76467896 C-11.62822408 118.73853918 -8.23816055 118.71665744 -4.84803557 118.69667697 C-1.30192934 118.67476763 2.24413473 118.64740321 5.79020691 118.62062073 C12.50134309 118.57076061 19.21250277 118.52579708 25.92368478 118.48259836 C33.56576294 118.43316879 41.20779879 118.37827192 48.84983599 118.32291877 C64.56651819 118.20920133 80.28323935 118.10234011 96 118 C94.43842924 116.57567482 92.87407582 115.15440013 91.30859375 113.734375 C90.43775146 112.94256836 89.56690918 112.15076172 88.66967773 111.33496094 C74.85853769 99.25542337 59.69380464 94.02650605 41.52270508 93.73461914 C40.71115558 93.71812757 39.89960608 93.70163601 39.06346416 93.6846447 C36.38221274 93.63099992 33.70088932 93.58314691 31.01953125 93.53515625 C29.11274347 93.49780727 27.20596459 93.46000121 25.29919434 93.42176819 C21.24544625 93.34092451 17.1916656 93.26214832 13.1378479 93.18487549 C2.50825245 92.98097662 -8.12086693 92.75387594 -18.75 92.52734375 C-19.80578436 92.5048909 -20.86156872 92.48243805 -21.94934654 92.45930481 C-64.64353816 91.54903384 -107.18697297 90.02751567 -149.78285217 86.87449646 C-160.75085424 86.07160122 -171.7239003 85.35907268 -182.69921875 84.6640625 C-184.03069726 84.57964244 -184.03069726 84.57964244 -185.38907433 84.49351692 C-193.38586632 83.98690305 -201.38287169 83.48371372 -209.38009644 82.98397827 C-213.53930811 82.7240192 -217.69837356 82.46182167 -221.85735512 82.19820786 C-223.39617379 82.10117323 -224.93505097 82.00506133 -226.47398949 81.90994644 C-240.96558213 81.01428346 -240.96558213 81.01428346 -248 80 C-248 79.67 -248 79.34 -248 79 C-177.50977379 73.16904149 -106.76054235 72.60168827 -36.07524109 72.13619995 C-16.85367243 72.00840901 2.36660373 71.8136677 21.58694458 71.56231689 C25.57214225 71.51036281 29.5573819 71.46378689 33.54266167 71.41863823 C36.44021961 71.38480253 39.33771115 71.34684255 42.23519897 71.3074913 C44.18459416 71.28205254 46.13404612 71.26108586 48.08349609 71.24026489 C49.2269751 71.22349701 50.3704541 71.20672913 51.54858398 71.18945312 C53.03091774 71.17066101 53.03091774 71.17066101 54.54319763 71.15148926 C57.13685485 71.0972941 57.13685485 71.0972941 60 70 C-8.34348478 4.60871759 -98.76835703 5.33367303 -188 7 C-209.68038741 7.54953305 -231.36119233 8.55104235 -253 10 C-253.37060547 10.97718994 -253.74121094 11.95437988 -254.12304688 12.96118164 C-274.51468074 66.65545781 -296.80976574 119.36659382 -322 171 C-322.55445801 172.13759766 -323.10891602 173.27519531 -323.68017578 174.44726562 C-331.16144665 189.74343446 -339.02146384 204.72650698 -347.54541016 219.46679688 C-348.9301185 221.87829969 -350.28936584 224.30184011 -351.63671875 226.734375 C-352.24132935 227.82443848 -352.24132935 227.82443848 -352.8581543 228.93652344 C-353.58249596 230.24551119 -354.30431994 231.55589786 -355.02270508 232.86816406 C-357.40576788 237.15208111 -360.10254902 241.05624728 -363 245 C-364.32 244.67 -365.64 244.34 -367 244 C-366.36032236 237.11460681 -364.16511396 230.81260725 -362.01953125 224.265625 C-361.614534 223.01458984 -361.20953674 221.76355469 -360.79226685 220.47460938 C-359.69839536 217.09604813 -358.59754534 213.71979921 -357.49534225 210.34394836 C-356.35345048 206.84231619 -355.21822086 203.33852562 -354.08227539 199.83496094 C-351.60316205 192.19289883 -349.11494896 184.55381948 -346.62443542 176.91546631 C-345.65951464 173.95555534 -344.69548654 170.99535379 -343.73144531 168.03515625 C-343.2092617 166.43187469 -343.2092617 166.43187469 -342.67652893 164.79620361 C-342.01189184 162.75548436 -341.34728907 160.71475393 -340.682724 158.67401123 C-339.20048137 154.12324496 -337.7165346 149.57305553 -336.2277832 145.02441406 C-335.96029266 144.20577881 -335.69280212 143.38714355 -335.41720581 142.54370117 C-334.93367919 141.0640476 -334.44927588 139.58467998 -333.96365356 138.10571289 C-332.73174441 134.3325931 -331.55515617 130.5467493 -330.41822815 126.74383545 C-330.15159646 125.85269421 -329.88496477 124.96155296 -329.61025333 124.04340744 C-329.40886973 123.36908298 -329.20748613 122.69475853 -329 122 C-330.28889191 122.00664702 -331.57778381 122.01329405 -332.90573305 122.0201425 C-375.5201406 122.21675754 -418.10904686 121.60407995 -460.71605546 120.88081823 C-470.90426081 120.70807672 -481.09255781 120.54102158 -491.28085853 120.37401609 C-511.22024788 120.04699678 -531.15954656 119.71470449 -551.09880944 119.38007218 C-568.52398178 119.08765247 -585.94918439 118.79712018 -603.37441826 118.50839043 C-604.53686844 118.4891267 -605.69931862 118.46986297 -606.89699456 118.45001549 C-611.61704609 118.37179914 -616.33709777 118.29359169 -621.05714966 118.21539741 C-665.15585396 117.484816 -709.2544682 116.74892489 -753.3530412 116.010465 C-792.48716502 115.35516793 -831.62135808 114.70416948 -870.75561523 114.05688477 C-880.80325633 113.89069131 -890.85089734 113.72449316 -900.89853764 113.55825138 C-902.13574931 113.53778138 -903.37296098 113.51731138 -904.64766391 113.49622108 C-937.43782378 112.95363253 -970.22792668 112.4076238 -1003.01801199 111.86054987 C-1006.54498866 111.80170899 -1010.07196536 111.7428694 -1013.59894209 111.68403175 C-1015.93821986 111.64500718 -1018.2774976 111.60598011 -1020.61677529 111.56695054 C-1038.05461893 111.27604387 -1055.4924905 110.98685524 -1072.93037605 110.69847298 C-1092.73275525 110.37097053 -1112.53508791 110.04079318 -1132.3373642 109.7071243 C-1143.40985299 109.52062364 -1154.48237074 109.33612181 -1165.55494116 109.15453065 C-1172.95402033 109.03297984 -1180.35305141 108.90874927 -1187.75204947 108.78235811 C-1191.96388603 108.71048379 -1196.17573285 108.63974047 -1200.38764215 108.57225073 C-1204.22748731 108.51069764 -1208.06725902 108.44570202 -1211.90700215 108.37809157 C-1213.92017427 108.34349275 -1215.93340646 108.31244313 -1217.94663945 108.28158852 C-1226.98761964 108.11752657 -1235.98171052 107.62700376 -1245 107 C-1245 106.67 -1245 106.34 -1245 106 C-1181.67930377 103.55097056 -1118.34988858 101.37161817 -1055.01845551 99.22086322 C-1045.53930113 98.89890846 -1036.06017003 98.57627563 -1026.58105469 98.25317383 C-1025.9031156 98.23006603 -1025.22517652 98.20695824 -1024.52669382 98.18315021 C-1021.12207158 98.06709891 -1017.71744973 97.95103635 -1014.31282806 97.83496821 C-986.54194459 96.88823568 -958.77099533 95.9434452 -931 95 C-935.83654277 94.0618618 -940.59167709 93.78389139 -945.50342178 93.66110229 C-946.34984735 93.63661082 -947.19627292 93.61211934 -948.06834775 93.58688569 C-950.91153754 93.50563394 -953.7548537 93.43033055 -956.59820557 93.35498047 C-958.65454238 93.29744014 -960.71086894 93.23953222 -962.76718593 93.18128777 C-968.42361016 93.02212624 -974.08016559 92.86814948 -979.73675513 92.71499157 C-985.83514152 92.54895886 -991.93339332 92.37811675 -998.03166199 92.20782471 C-1008.60153477 91.91329457 -1019.1714851 91.62171267 -1029.74149323 91.33209229 C-1045.03492133 90.91300306 -1060.32819773 90.48856777 -1075.62143907 90.06272388 C-1082.74714609 89.86431534 -1089.87286056 89.66617466 -1096.99857712 89.46810913 C-1097.7119307 89.44828063 -1098.42528428 89.42845214 -1099.16025463 89.40802278 C-1116.13982399 88.93612044 -1133.11946683 88.46688277 -1150.09912109 87.99804688 C-1151.21350349 87.96727565 -1151.21350349 87.96727565 -1152.35039866 87.93588278 C-1159.87765632 87.72803548 -1167.40491502 87.52022592 -1174.93217439 87.31244073 C-1190.74792118 86.87585546 -1206.56366127 86.43902795 -1222.37939453 86.00195312 C-1223.12130864 85.98145093 -1223.86322275 85.96094874 -1224.62761911 85.93982527 C-1241.56986047 85.47162734 -1258.51208266 85.00274826 -1275.45425034 84.53189087 C-1276.16656923 84.51209443 -1276.87888812 84.492298 -1277.61279244 84.47190167 C-1284.72477061 84.27423507 -1291.83674575 84.07645987 -1298.94871625 83.87851758 C-1314.22279029 83.4534336 -1329.49691705 83.03039051 -1344.7711614 82.61146802 C-1355.90777408 82.30600052 -1367.04431533 81.99803293 -1378.18079123 81.6876111 C-1384.21326648 81.51955436 -1390.24576891 81.35269972 -1396.27836418 81.18900299 C-1401.8016326 81.03910974 -1407.3247987 80.88589837 -1412.84790251 80.73006082 C-1414.84516113 80.67429856 -1416.84245436 80.61975922 -1418.83978322 80.56657195 C-1421.55769858 80.49402139 -1424.27545296 80.41700016 -1426.99321365 80.33889771 C-1427.76579681 80.31934973 -1428.53837996 80.29980175 -1429.33437473 80.27966142 C-1434.92111383 80.11226728 -1440.44543648 79.61409437 -1446 79 C-1446 78.67 -1446 78.34 -1446 78 C-1393.86829819 76.22574668 -1341.72753199 74.78368779 -1289.5859285 73.33640994 C-1276.52238229 72.9737498 -1263.45888183 72.60945205 -1250.39538189 72.24512976 C-1226.30061541 71.5731819 -1202.20581256 70.90254627 -1178.11098862 70.2326622 C-1154.29842395 69.57062301 -1130.48587408 68.90805536 -1106.67334366 68.24478531 C-1105.17005767 68.20291365 -1103.66677169 68.16104201 -1102.1634857 68.11917039 C-1096.12112993 67.95086917 -1090.07877428 67.78256367 -1084.03641877 67.61425303 C-1067.15736926 67.14408565 -1050.27831723 66.67400836 -1033.39926338 66.20399666 C-1032.631215 66.18260965 -1031.86316661 66.16122263 -1031.07184403 66.13918753 C-993.04353281 65.08026335 -955.0151908 64.02244604 -916.98684796 62.96465804 C-866.00455235 61.54654414 -815.02228259 60.12750496 -764.04003906 58.70751953 C-762.42406801 58.6625108 -760.80809696 58.61750208 -759.19212591 58.57249339 C-755.96396562 58.48258131 -752.73580535 58.39266912 -749.50764507 58.30275682 C-742.26906769 58.10114443 -735.03049029 57.8995324 -727.79191287 57.69792151 C-726.18859504 57.65326541 -724.58527721 57.60860921 -722.98195938 57.56395292 C-680.18908075 56.37206806 -637.39618649 55.18074471 -594.60328591 53.98964798 C-593.85678805 53.96886996 -593.11029019 53.94809195 -592.34117118 53.92668429 C-585.58730861 53.73869752 -578.83344602 53.55071147 -572.0795833 53.36273009 C-555.66687013 52.90591182 -539.25415843 52.44904047 -522.84145117 51.99200964 C-522.1019162 51.97141653 -521.36238123 51.95082341 -520.60043611 51.92960627 C-517.62020332 51.84661859 -514.63997055 51.7636307 -511.65973777 51.68064277 C-484.05294608 50.91190199 -456.44614417 50.14353017 -428.83932213 49.37587987 C-414.62929938 48.98073814 -400.41928512 48.58529417 -386.20928286 48.18941597 C-376.73439019 47.92548512 -367.25948637 47.66195685 -357.78457314 47.39876515 C-352.37730584 47.24855255 -346.97004368 47.09816087 -341.56279479 46.94728719 C-336.65245333 46.81028231 -331.74209811 46.67378223 -326.83173101 46.53769933 C-325.05882193 46.48847532 -323.2859181 46.43906173 -321.51302001 46.38944372 C-319.11909655 46.32247194 -316.72515529 46.25617697 -314.33120811 46.19005954 C-313.29222427 46.16074755 -313.29222427 46.16074755 -312.23225085 46.1308434 C-309.15249077 46.04646357 -306.08143889 46 -303 46 C-302.7328418 44.70884277 -302.46568359 43.41768555 -302.19042969 42.08740234 C-301.08846686 37.13919096 -299.58788027 32.39596923 -297.953125 27.6015625 C-297.51259796 26.28990616 -297.51259796 26.28990616 -297.06317139 24.95175171 C-296.12975598 22.1746942 -295.19026315 19.39974563 -294.25 16.625 C-293.3286547 13.89643784 -292.40869354 11.16742348 -291.49084473 8.43768311 C-290.8841842 6.63567336 -290.27474316 4.83459723 -289.66247559 3.03448486 C-288.14335702 -1.45936117 -286.69980032 -5.95850271 -285.38476562 -10.51660156 C-285.12685242 -11.39345612 -284.86893921 -12.27031067 -284.60321045 -13.17373657 C-284.11950052 -14.83381777 -283.65212493 -16.498776 -283.20391846 -18.16879272 C-282.54589844 -20.40869141 -282.54589844 -20.40869141 -281 -24 C-277.55779011 -25.81237901 -274.41429147 -26.31571402 -270.56494141 -26.57836914 C-269.49837311 -26.65507339 -268.43180481 -26.73177765 -267.33291626 -26.81080627 C-266.18406952 -26.88484177 -265.03522278 -26.95887726 -263.8515625 -27.03515625 C-262.64801117 -27.11873886 -261.44445984 -27.20232147 -260.20443726 -27.28843689 C-257.64762107 -27.46444788 -255.09053038 -27.63650897 -252.53320312 -27.80493164 C-248.7011963 -28.05747832 -244.87012911 -28.32150016 -241.0390625 -28.58789062 C-164.45078337 -33.84048424 -69.75697546 -37.26768295 0 0 Z " fill="#050708" transform="translate(3126,31)"/>
<path d="M0 0 C1.17369141 0.92232422 1.17369141 0.92232422 2.37109375 1.86328125 C21.72965421 17.97816135 33.79211673 43.05646102 36.18701172 67.94335938 C39.00055824 100.57154342 32.38072876 132.65101627 18 162 C17.67241699 162.66902344 17.34483398 163.33804688 17.00732422 164.02734375 C-3.55529282 205.41895951 -40.91059966 238.46464479 -84.48730469 253.87988281 C-101.02056933 259.39945942 -118.04126815 263.0969265 -135.5234375 263.203125 C-136.69280853 263.21371445 -136.69280853 263.21371445 -137.88580322 263.22451782 C-170.47113292 263.45279272 -170.47113292 263.45279272 -184 260 C-184.80453613 259.80132324 -185.60907227 259.60264648 -186.43798828 259.39794922 C-213.7396274 252.46213795 -239.27652505 237.67948962 -254.18066406 213.04882812 C-272.74093134 181.17522535 -272.96858232 147.36702501 -267 112 C-267.57105469 112.85980469 -268.14210938 113.71960938 -268.73046875 114.60546875 C-283.67175704 136.60027454 -302.76428552 150.93912906 -329 157 C-348.45891403 160.58847152 -368.48567894 160.14102873 -388.1875 160.0625 C-390.41341044 160.05746878 -392.63932199 160.05290877 -394.86523438 160.04882812 C-400.24351454 160.03796529 -405.62175179 160.02135898 -411 160 C-411.21841553 161.2470874 -411.43683105 162.4941748 -411.66186523 163.77905273 C-413.40900541 172.48769126 -415.98869433 180.99581121 -418.41015625 189.53515625 C-418.9432252 191.42412235 -419.47605317 193.31315647 -420.00865173 195.20225525 C-421.119939 199.14066013 -422.23390797 203.07829345 -423.34985352 207.01538086 C-424.78279955 212.07157337 -426.20928854 217.12956102 -427.63385868 222.18811893 C-428.7303199 226.07912287 -429.82997261 229.96921904 -430.93063164 233.8590374 C-431.4582875 235.72517483 -431.98497785 237.59158553 -432.51069832 239.45826912 C-433.24227047 242.05391617 -433.97807943 244.64832379 -434.71508789 247.24243164 C-434.93276825 248.01793869 -435.15044861 248.79344574 -435.37472534 249.592453 C-436.88569825 254.88569825 -436.88569825 254.88569825 -438 256 C-440.30053835 256.09443335 -442.60402173 256.11742128 -444.90649414 256.11352539 C-445.62840439 256.11367142 -446.35031464 256.11381744 -447.09410095 256.1139679 C-449.49114947 256.11326869 -451.88812123 256.10547595 -454.28515625 256.09765625 C-455.94282489 256.0957921 -457.60049407 256.09436818 -459.25816345 256.09336853 C-463.62954214 256.08954312 -468.00088781 256.07971265 -472.37225342 256.06866455 C-476.82954461 256.05845092 -481.28684111 256.05387101 -485.74414062 256.04882812 C-494.49610893 256.0380904 -503.24805036 256.02101371 -512 256 C-511.39102084 251.12172429 -510.42642301 246.53444638 -509.0925293 241.8046875 C-508.80331258 240.77209226 -508.80331258 240.77209226 -508.5082531 239.71863651 C-507.86781872 237.43620697 -507.22103604 235.15562814 -506.57421875 232.875 C-506.11492188 231.2430649 -505.65602339 229.61101763 -505.19749451 227.97886658 C-503.9582938 223.57211516 -502.71360114 219.16693196 -501.46793365 214.76200485 C-500.15159929 210.10341297 -498.84046887 205.44335688 -497.52880859 200.78344727 C-495.11716208 192.21834671 -492.70133067 183.65443341 -490.28366852 175.09102917 C-487.8195654 166.36249764 -485.36029617 157.63260897 -482.90234375 148.90234375 C-482.10102234 146.05638818 -481.29966668 143.21044225 -480.49829102 140.36450195 C-480.30217193 139.6680038 -480.10605284 138.97150564 -479.90399075 138.25390148 C-478.51359053 133.31640599 -477.12212709 128.37921086 -475.73022461 123.44213867 C-470.96963758 106.55519672 -466.21893701 89.66550366 -461.4765625 72.7734375 C-460.91248612 70.76438894 -460.34840938 68.75534048 -459.78433228 66.74629211 C-457.56984282 58.85868652 -455.35542101 50.97106214 -453.14263916 43.08297729 C-447.14623575 21.7071525 -441.12926519 0.33817891 -435 -21 C-421.02050431 -21.0706025 -407.04103693 -21.12303523 -393.06139851 -21.15543652 C-386.56796843 -21.17099852 -380.07465932 -21.19206102 -373.58129883 -21.22631836 C-367.29833499 -21.25925292 -361.01548645 -21.27692388 -354.73244286 -21.28463173 C-352.35223771 -21.29011472 -349.97203786 -21.30081862 -347.59188271 -21.31719017 C-318.19608507 -21.51108295 -289.62368211 -19.58647331 -267.21484375 1.66015625 C-252.80213442 16.88628127 -249.47577335 36.05016934 -249.796875 56.2734375 C-249.93874148 60.88793218 -250.43091315 65.41976876 -251 70 C-250.53851562 69.15179688 -250.07703125 68.30359375 -249.6015625 67.4296875 C-236.25757894 43.27415521 -218.26240857 22.36428464 -196 6 C-195.43361816 5.5786377 -194.86723633 5.15727539 -194.28369141 4.72314453 C-140.5681694 -34.75044281 -53.83892122 -43.0267032 0 0 Z M-377 38 C-379.21803899 45.93571938 -381.43469776 53.8718224 -383.64957428 61.80842495 C-384.67797054 65.49332453 -385.70684951 69.17808792 -386.73681641 72.86254883 C-387.7299717 76.41539251 -388.72187895 79.96858241 -389.71290588 83.52202034 C-390.09203764 84.88058046 -390.47162606 86.23901323 -390.85166931 87.59731865 C-391.38212382 89.49350078 -391.91083345 91.39017077 -392.43945312 93.28686523 C-392.7414563 94.36830307 -393.04345947 95.44974091 -393.35461426 96.56394958 C-394.04268268 98.7410932 -394.04268268 98.7410932 -394 100 C-360.27754385 101.33569945 -360.27754385 101.33569945 -331 87 C-323.58561288 78.94677535 -322.66777068 70.17719341 -322.6015625 59.55078125 C-323.31606347 53.18331668 -326.17186187 49.07709442 -331 45 C-342.16581039 38.07528068 -354.6012588 37.93230289 -367.359375 37.9765625 C-368.7513208 37.97910034 -368.7513208 37.97910034 -370.17138672 37.98168945 C-372.44760065 37.98608369 -374.72379548 37.99223614 -377 38 Z M-161 65 C-161.62390625 65.54011719 -162.2478125 66.08023438 -162.890625 66.63671875 C-180.99205727 83.42706597 -189.97272001 107.89789346 -192 132 C-192.0721875 132.8559375 -192.144375 133.711875 -192.21875 134.59375 C-192.83881455 150.09536381 -188.23040314 165.38242356 -178 177 C-177.18015625 177.94359375 -177.18015625 177.94359375 -176.34375 178.90625 C-166.06042346 189.96567665 -151.80119238 194.19148616 -137.03515625 195.203125 C-110.76782638 195.61732731 -89.27817656 184.62850819 -70.4375 166.8125 C-57.64394839 153.60699146 -49.57437593 137.74582019 -45 120 C-44.77441406 119.16984375 -44.54882812 118.3396875 -44.31640625 117.484375 C-40.56284428 101.02047558 -41.63802234 82.3477469 -50.20703125 67.6640625 C-59.15052667 54.37547018 -70.99805628 45.59216881 -86.5625 41.6875 C-114.47155362 37.02103444 -140.11369564 46.54156223 -161 65 Z " fill="#676767" transform="translate(3272,364)"/>
<path d="M0 0 C0.89250458 -0.00426498 1.78500916 -0.00852997 2.70455933 -0.01292419 C3.69191574 -0.01247101 4.67927216 -0.01201782 5.69654846 -0.0115509 C7.24810638 -0.01658882 7.24810638 -0.01658882 8.83100891 -0.02172852 C12.27781861 -0.0312848 15.72457982 -0.03318505 19.17140198 -0.03425598 C21.57065857 -0.03746925 23.96991496 -0.04083337 26.36917114 -0.04434204 C31.41921949 -0.05034769 36.4692507 -0.05218086 41.51930237 -0.05158997 C47.94649783 -0.05148915 54.37358079 -0.06505033 60.80074978 -0.08236217 C65.76921069 -0.09357171 70.73764537 -0.09550632 75.70611763 -0.09498024 C78.07204126 -0.09615042 80.4379658 -0.10051727 82.80387688 -0.10831261 C110.91557935 -0.19214116 141.47342455 0.3725409 162.97340393 21.06340027 C172.12694716 30.27595745 177.50037367 40.05515971 180.28468323 52.76261902 C180.63101967 55.07508425 180.63101967 55.07508425 181.86280823 56.13371277 C187.14280823 37.65371277 192.42280823 19.17371277 197.86280823 0.13371277 C262.87280823 0.13371277 327.88280823 0.13371277 394.86280823 0.13371277 C392.51079222 9.54177682 390.16708663 18.86791149 387.44483948 28.16105652 C387.14212631 29.20145584 386.83941315 30.24185516 386.52752686 31.31378174 C385.89804138 33.47417036 385.26704368 35.63411893 384.63453674 37.79362488 C383.66222983 41.11590035 382.6968407 44.44013644 381.73194885 47.76457214 C381.11581996 49.87601924 380.49929857 51.98735186 379.88233948 54.09855652 C379.59381607 55.09314377 379.30529266 56.08773102 379.00802612 57.11245728 C378.60706978 58.47637352 378.60706978 58.47637352 378.19801331 59.86784363 C377.96359024 60.67007858 377.72916718 61.47231354 377.48764038 62.29885864 C376.86280823 64.13371277 376.86280823 64.13371277 375.86280823 65.13371277 C374.02162793 65.22752579 372.17683181 65.25115231 370.33326721 65.24723816 C369.15211838 65.24716263 367.97096954 65.2470871 366.75402832 65.24700928 C365.46863663 65.24184799 364.18324493 65.23668671 362.85890198 65.23136902 C360.89667442 65.2292466 360.89667442 65.2292466 358.89480591 65.2270813 C355.41117964 65.22325687 351.92759483 65.21342723 348.44398499 65.20237732 C344.89154115 65.19216159 341.33909063 65.18758333 337.78663635 65.18254089 C330.81200991 65.17180489 323.83741106 65.15472936 316.86280823 65.13371277 C316.51802429 67.06537292 316.51802429 67.06537292 316.16627502 69.03605652 C314.56051432 77.03679313 312.23186308 84.85104246 310.00733948 92.69621277 C309.51213998 94.45341021 309.01729136 96.21070656 308.52276611 97.96809387 C307.18878912 102.70525941 305.85031252 107.44114276 304.5110321 112.17681122 C303.10604397 117.14784496 301.70521446 122.12004994 300.30421448 127.09220886 C298.568089 133.25308764 296.83172431 139.41389801 295.09367371 145.57423401 C291.1831004 159.43633954 287.28834383 173.30280093 283.40577698 187.17277527 C282.88754375 189.02358814 282.3692994 190.87439789 281.8510437 192.72520447 C279.88178939 199.75842155 277.91267717 206.79167785 275.94596863 213.8256073 C274.80933381 217.89057181 273.67120873 221.95511669 272.53215981 226.01940536 C272.12517443 227.47256465 271.71867855 228.92586119 271.31282616 230.37933731 C266.95069976 246.00008663 262.38507886 261.55700281 257.86280823 277.13371277 C233.11280823 277.13371277 208.36280823 277.13371277 182.86280823 277.13371277 C183.55697953 271.58034238 184.38145186 266.65830649 185.90626526 261.3568573 C186.11378166 260.6176407 186.32129807 259.87842409 186.53510284 259.11680698 C187.22481271 256.66513527 187.92271759 254.21587605 188.62062073 251.76652527 C189.11742968 250.00656611 189.61370326 248.24645575 190.10948181 246.48620605 C191.17292569 242.71458743 192.23994594 238.94400645 193.30982971 235.17420959 C195.0030477 229.20795233 196.68849781 223.23951888 198.37257385 217.27067566 C200.11581943 211.09349905 201.85959823 204.9164756 203.6061554 198.74023438 C207.5278189 184.87190087 211.433657 170.9992171 215.32374573 157.12199402 C215.58105595 156.20409843 215.83836617 155.28620285 216.10347366 154.34049225 C217.36990664 149.82233518 218.63598023 145.30407753 219.90180969 140.78575134 C222.21028777 132.54586652 224.52087096 124.30657204 226.83155823 116.06730652 C227.14993464 114.93195843 227.14993464 114.93195843 227.47474289 113.77367401 C231.928647 97.89121236 236.3948478 82.01222659 240.86280823 66.13371277 C211.16280823 65.63871277 211.16280823 65.63871277 180.86280823 65.13371277 C180.86280823 70.74371277 180.86280823 76.35371277 180.86280823 82.13371277 C176.72641887 108.91139124 164.21094963 132.4700336 142.31983948 148.87199402 C128.21910684 158.90376525 111.98300697 165.51170035 94.86280823 168.13371277 C96.24708477 172.61853948 98.01940586 176.68501093 100.12818909 180.87565613 C100.61418579 181.84567818 100.61418579 181.84567818 101.11000061 182.83529663 C102.17887873 184.96658294 103.25332374 187.09501305 104.32765198 189.22355652 C105.08356321 190.72909163 105.83905364 192.23483808 106.59414673 193.74078369 C108.58725138 197.71370122 110.58477686 201.6843775 112.58363342 205.65440369 C116.12839324 212.69573279 119.66718225 219.74005884 123.20265198 226.78605652 C123.58243572 227.54260906 123.96221947 228.29916161 124.35351181 229.07863998 C130.31159876 240.95406007 136.13017343 252.88638854 141.79252625 264.90620422 C142.8767895 267.16281109 144.00969657 269.38996086 145.15162659 271.61784363 C146.86280823 275.13371277 146.86280823 275.13371277 146.86280823 277.13371277 C118.81280823 277.13371277 90.76280823 277.13371277 61.86280823 277.13371277 C58.60363819 269.96353868 55.52965958 262.91607132 52.78077698 255.56340027 C52.40901337 254.57899963 52.03724976 253.594599 51.65422058 252.58036804 C50.86024719 250.47751722 50.06780115 248.37408917 49.27677917 246.27012634 C47.18626302 240.71105641 45.08344918 235.15664802 42.97999573 229.60246277 C42.55473099 228.47915558 42.12946625 227.35584839 41.6913147 226.19850159 C35.2171909 209.12434673 28.53072011 192.13282943 21.86280823 175.13371277 C21.60273483 176.05760803 21.34266144 176.9815033 21.07470703 177.93339539 C18.59103086 186.75593799 16.10614765 195.57813991 13.62016201 204.40003204 C12.34296 208.93251491 11.06614456 213.46510584 9.79029846 217.99797058 C8.55283391 222.39441213 7.31424199 226.79053478 6.07495308 231.1864624 C5.60865853 232.84116921 5.14273165 234.49597968 4.67722893 236.15090942 C0.82667231 249.83861646 -3.15553138 263.48230572 -7.13719177 277.13371277 C-31.88719177 277.13371277 -56.63719177 277.13371277 -82.13719177 277.13371277 C-78.65735337 263.79433224 -75.17921165 250.48195554 -71.43406677 237.21965027 C-70.99853425 235.67078804 -70.56321369 234.1218662 -70.12808228 232.57289124 C-69.20089734 229.27369777 -68.2724643 225.9748594 -67.3429718 222.67631531 C-65.054029 214.55305061 -62.77177627 206.42790448 -60.48863029 198.30300903 C-59.68213535 195.43325302 -58.87537953 192.56357044 -58.06860352 189.69389343 C-54.23924683 176.07051272 -50.42413527 162.44319101 -46.61766052 148.81340027 C-46.34791224 147.8475211 -46.07816395 146.88164192 -45.80024147 145.88649368 C-44.70899309 141.97892722 -43.61780986 138.07134256 -42.52670383 134.16373634 C-33.72297806 102.63591572 -24.90673673 71.11153558 -16.04176331 39.60087585 C-15.06850578 36.14108339 -14.0967833 32.68086565 -13.12641907 29.22026062 C-12.00542547 25.22280693 -10.88128011 21.22625401 -9.7545166 17.23042297 C-9.34390251 15.77227045 -8.93441774 14.3137994 -8.52612305 12.85499573 C-7.97304197 10.87965465 -7.41548334 8.90556885 -6.85765076 6.93156433 C-6.39237221 5.27716339 -6.39237221 5.27716339 -5.91769409 3.58934021 C-4.69417815 -0.26010295 -3.83114113 0.00823653 0 0 Z M54.86280823 54.13371277 C52.81681956 61.20934346 50.77231894 68.28540297 48.72877502 75.36174011 C48.0357453 77.7609239 47.34239486 80.16001508 46.6486969 82.55900574 C41.71513485 99.61824381 41.71513485 99.61824381 36.87452698 116.70402527 C36.56186638 117.81014664 36.56186638 117.81014664 36.2428894 118.93861389 C35.21464168 122.48256913 35.21464168 122.48256913 34.86280823 126.13371277 C38.87883204 126.20923106 42.8945675 126.26294175 46.91114807 126.29850769 C48.93033935 126.32058443 50.94933465 126.35874934 52.96827698 126.39738464 C68.4451568 126.51174582 81.20747536 123.50987598 94.17530823 114.94621277 C103.78075405 104.89400202 107.43492839 94.02248105 107.34864807 80.39762878 C107.06943794 73.07530233 105.38373542 67.43590501 99.91358948 62.30558777 C89.52903755 54.62437521 76.32414595 53.94679081 63.86280823 54.07121277 C62.99269104 54.07572449 62.12257385 54.08023621 61.22608948 54.08488464 C59.1049653 54.09653917 56.98387713 54.1144692 54.86280823 54.13371277 Z " fill="#676767" transform="translate(3363.137191772461,342.8662872314453)"/>
<path d="M0 0 C0.63550781 0.50917969 1.27101563 1.01835937 1.92578125 1.54296875 C2.45751953 2.26419922 2.45751953 2.26419922 3 3 C2.2941074 7.34814129 -0.19416626 10.48081765 -2.6875 14 C-3.41356445 15.04027344 -3.41356445 15.04027344 -4.15429688 16.1015625 C-5.76388849 18.40504885 -7.38186798 20.70250676 -9 23 C-10.1529186 24.6454307 -11.30525194 26.29127161 -12.45703125 27.9375 C-14.22848226 30.46919364 -16.00038863 33.00055411 -17.7746582 35.53027344 C-23.23481039 43.31818664 -28.62837447 51.15084922 -34 59 C-37.87542353 58.4388527 -39.62611628 56.70197444 -42.375 54 C-54.28479833 42.98607145 -68.41934826 34.53953075 -85.01953125 34.71875 C-92.6109562 35.43510989 -99.8241246 38.33118408 -105 44 C-107.62237188 48.1637128 -109.60744426 52.25134262 -110.6875 57.0625 C-108.65849409 65.73188891 -102.25504666 71.19873048 -94.99755859 75.796875 C-89.69741746 78.98913796 -84.24840567 81.93114422 -78.84082031 84.93603516 C-58.443598 96.37942352 -38.17539206 110.038922 -30 133 C-23.55249087 157.88423229 -29.56964353 186.27513171 -42.24609375 208.28515625 C-55.17876529 228.30343402 -72.31610447 242.4067592 -94 252 C-95.63388672 252.72316406 -95.63388672 252.72316406 -97.30078125 253.4609375 C-128.68200859 266.3573323 -168.46100457 267.99604757 -199.92089844 254.91845703 C-211.72457879 249.70410223 -221.5687571 242.74273619 -231 234 C-231.77085937 233.28714844 -232.54171875 232.57429688 -233.3359375 231.83984375 C-236.79428795 228.50737196 -240.01478208 224.97122535 -243.125 221.3125 C-243.72570313 220.60738281 -244.32640625 219.90226563 -244.9453125 219.17578125 C-246 217 -246 217 -245.51953125 214.6328125 C-243.57197591 211.25838499 -241.15187643 208.4479446 -238.5625 205.5625 C-234.37309729 200.79185004 -230.32220327 195.95958466 -226.4375 190.9375 C-222.39524765 185.72439338 -218.23066262 180.64302071 -213.92919922 175.64160156 C-210.3532139 171.47241883 -207.01079144 167.15504928 -203.75390625 162.73046875 C-202 161 -202 161 -198 161 C-196.4296875 162.3984375 -196.4296875 162.3984375 -194.875 164.375 C-181.32887942 180.69388726 -165.17968047 192.50228665 -143.6875 194.75 C-133.60423528 195.37874861 -124.48039953 193.72571193 -116 188 C-110.11940784 182.71835704 -107.14421659 177.60999333 -106.5 169.6875 C-106.71607767 162.11207109 -111.79952776 156.90916381 -117.0625 151.9375 C-124.14063565 145.98065317 -132.24255726 141.58390214 -140.234375 136.9921875 C-151.15596056 130.68363925 -161.46282488 124.27981963 -171 116 C-171.72316406 115.37738281 -172.44632813 114.75476563 -173.19140625 114.11328125 C-182.62279016 105.37448277 -188.37109346 92.24801906 -189.23828125 79.49609375 C-190.04291421 50.20891035 -178.77510146 23.49146418 -158.75 2.3125 C-145.09802193 -10.76465794 -128.1568267 -20.00687266 -110 -25 C-108.88625 -25.3196875 -107.7725 -25.639375 -106.625 -25.96875 C-68.67761902 -34.9562876 -29.58765496 -24.60539105 0 0 Z " fill="#676767" transform="translate(2805,364)"/>
<path d="M0 0 C1.13956954 0.00436926 1.13956954 0.00436926 2.30216068 0.00882679 C3.50400671 0.00754515 3.50400671 0.00754515 4.73013246 0.00623763 C7.43567753 0.00458038 10.14116165 0.01010817 12.84670109 0.01555592 C14.7778585 0.01583776 16.70901602 0.01568011 18.64017338 0.01511341 C23.90028629 0.01482533 29.16037661 0.02072373 34.42048424 0.02768737 C39.91114241 0.03391919 45.40180104 0.03452457 50.89246219 0.03571278 C61.29764511 0.0388266 71.70281757 0.04704068 82.10799587 0.05706227 C93.95059766 0.06822182 105.79319993 0.07373346 117.63580567 0.0787577 C142.00420565 0.08922325 166.37259634 0.10682368 190.74098819 0.12908131 C189.694394 5.58550859 188.60888837 10.97672357 187.04518741 16.31316334 C186.72058536 17.42860523 186.39598331 18.54404713 186.06154484 19.69329029 C185.72630802 20.82967945 185.3910712 21.96606861 185.04567569 23.13689381 C184.73315861 24.20802418 184.42064152 25.27915455 184.09865421 26.38274342 C182.94238429 30.34120811 181.77876463 34.29752298 180.61598819 38.25408131 C178.01723819 47.12283131 175.41848819 55.99158131 172.74098819 65.12908131 C152.94098819 65.12908131 133.14098819 65.12908131 112.74098819 65.12908131 C112.41098819 67.43908131 112.08098819 69.74908131 111.74098819 72.12908131 C111.23542499 74.2311539 110.68987773 76.32393193 110.10890812 78.40642506 C109.77233188 79.62102909 109.43575565 80.83563313 109.08898014 82.08704334 C108.71657256 83.41358412 108.34406145 84.74009583 107.97145694 86.06658131 C107.57922168 87.47514735 107.18735509 88.8838161 106.79582828 90.29257923 C105.73419339 94.10790667 104.666952 97.92164523 103.59859699 101.73509556 C102.69702931 104.95597582 101.79879314 108.17778116 100.90057129 111.3995958 C93.88005225 136.58010615 86.79924098 161.74380548 79.69435543 186.90063053 C75.34654524 202.29535209 71.01821707 217.69505165 66.74098819 233.10955006 C66.33798576 234.56100662 65.93496573 236.01245829 65.53192753 237.46390492 C63.8142107 243.65134033 62.09826303 249.83924293 60.39028209 256.02937371 C59.54734011 259.08150253 58.70039965 262.13252257 57.85426944 265.18376881 C57.55113834 266.2872617 57.24800724 267.39075459 56.93569034 268.52768666 C56.65914615 269.52262638 56.38260196 270.51756611 56.09767765 271.54265553 C55.85821918 272.40994282 55.61876072 273.27723011 55.37204593 274.17079884 C54.74098819 276.12908131 54.74098819 276.12908131 53.74098819 277.12908131 C51.39845038 277.22400853 49.08552715 277.25467922 46.74269718 277.2426067 C45.64520145 277.24282574 45.64520145 277.24282574 44.52553409 277.2430492 C42.09602036 277.24234998 39.66658236 277.23455716 37.23708194 277.22673756 C35.55699306 277.22487341 33.87690363 277.22344949 32.196814 277.22244984 C27.76625176 277.21862438 23.3357221 277.20879387 18.90517277 277.19774586 C14.38755843 277.18753233 9.86993886 277.18295235 5.35231632 277.17790943 C-3.51814073 277.16717162 -12.38857356 277.15009487 -21.25901181 277.12908131 C-19.69388016 268.07725528 -17.17760838 259.29904565 -14.69260556 250.46892506 C-14.22533602 248.7981743 -13.75838524 247.12733436 -13.29172665 245.45641285 C-12.02798879 240.93512831 -10.75964077 236.41514886 -9.49040753 231.8954044 C-8.15357757 227.13198856 -6.82097319 222.36739061 -5.48777157 217.60295826 C-2.37346182 206.47715676 0.74787459 195.35333237 3.87056583 184.22988087 C5.02882816 180.10367792 6.1866817 175.9773603 7.34454101 171.85104424 C12.04367831 155.1047946 16.74470723 138.35907675 21.45216984 121.61516529 C21.70369218 120.7204914 21.95521452 119.82581751 22.21435875 118.90403229 C23.42559663 114.5958621 24.63718309 110.28779042 25.84940189 105.97989613 C27.89870256 98.69562154 29.94415077 91.41036985 31.97096866 84.11980397 C32.30072193 82.93530155 32.63047519 81.75079914 32.97022098 80.53040272 C33.56436174 78.39401212 34.15683222 76.25715594 34.74722904 74.11972767 C35.00032337 73.20991642 35.2534177 72.30010517 35.51418155 71.36272389 C35.72940967 70.58479985 35.94463779 69.8068758 36.16638798 69.00537831 C36.74098819 67.12908131 36.74098819 67.12908131 37.74098819 65.12908131 C17.61098819 65.12908131 -2.51901181 65.12908131 -23.25901181 65.12908131 C-22.62000565 60.01703209 -22.06932227 55.9025304 -20.69260556 51.09612232 C-20.37557675 49.97879215 -20.05854794 48.86146199 -19.7319122 47.71027333 C-19.39023007 46.52976902 -19.04854794 45.34926472 -18.69651181 44.13298756 C-18.16948666 42.28905667 -18.16948666 42.28905667 -17.63181454 40.40787464 C-16.89154932 37.82262825 -16.1490751 35.23815278 -15.40256649 32.65471607 C-14.44453862 29.33869421 -13.49480532 26.02036659 -12.54775387 22.7011953 C-11.64259956 19.53159361 -10.73196132 16.3635716 -9.82151181 13.19548756 C-9.47982968 12.00081364 -9.13814755 10.80613972 -8.78611141 9.57526356 C-8.46908261 8.47999851 -8.1520538 7.38473347 -7.82541806 6.25627857 C-7.54641659 5.28779484 -7.26741513 4.31931111 -6.97995907 3.32147938 C-5.66338668 -0.68221258 -3.95332786 0.01149532 0 0 Z " fill="#676767" transform="translate(1690.2590118050575,342.8709186911583)"/>
<path d="M0 0 C0.81723038 -0.00983917 1.63446075 -0.01967834 2.47645569 -0.02981567 C36.96526446 -0.35966438 36.96526446 -0.35966438 53.2421875 4.23828125 C54.56355713 4.60832275 54.56355713 4.60832275 55.91162109 4.98583984 C93.44748341 15.84850101 124.44339073 39.56911013 143.49951172 73.89331055 C147.2421875 80.81382259 147.2421875 80.81382259 147.2421875 83.23828125 C143.2312258 81.58157968 140.3075471 78.77823106 137.1171875 75.92578125 C96.04468577 40.15664188 47.88011923 24.33627353 -6.28515625 27.44042969 C-51.00916701 30.7733495 -93.16809688 45.32429625 -133.27783203 64.71264648 C-136.41635379 66.21535816 -139.36608612 67.47326162 -142.7578125 68.23828125 C-133.7508882 45.06952629 -95.41096862 27.08973915 -74.42578125 17.62109375 C-51.19836107 7.60367815 -25.445772 0.2526176 0 0 Z " fill="#050708" transform="translate(3186.7578125,288.76171875)"/>
</svg>
